<svg xmlns="http://www.w3.org/2000/svg" xmlns:xlink="http://www.w3.org/1999/xlink" viewBox="0 0 305 87"><defs><style>.a{clip-path:url(#b);}.b{fill:#fff;}</style><clipPath id="b"><rect width="305" height="87"/></clipPath></defs><g id="a" class="a"><g transform="translate(16.696 21.6)"><path class="b" d="M1648.851,2100.96l-8.25,42.575h47.777l8.368-42.575Z" transform="translate(-1562.938 -2100.96)"/><g transform="translate(18.144)"><path class="b" d="M1648.851,2100.96l-8.25,42.575h47.777l8.368-42.575Z" transform="translate(-1640.601 -2100.96)"/><path class="b" d="M1648.851,2100.96l-8.25,42.575h47.777l8.368-42.575Z" transform="translate(-1640.601 -2100.96)"/></g><path class="b" d="M1654.593,2100.96l-4.991,25.758h11.626l5.063-25.758Z" transform="translate(-1649.601 -2093.744)"/><path class="b" d="M1654.593,2100.96l-4.991,25.758h11.626l5.063-25.758Z" transform="translate(-1394.241 -2091.824)"/><path class="b" d="M1648.851,2100.96l-8.25,42.575h47.777l8.368-42.575Z" transform="translate(-1502.937 -2100.96)"/><path class="b" d="M1648.851,2100.96l-8.25,42.575h47.777l8.368-42.575Z" transform="translate(-1442.937 -2100.96)"/></g></g></svg>