<svg xmlns="http://www.w3.org/2000/svg" xmlns:xlink="http://www.w3.org/1999/xlink" viewBox="0 0 1080 1920"><defs><style>.a{clip-path:url(#b);}.b,.d,.e{fill:#fff;}.b{font-size:60px;font-family:RobotoCondensed-BoldItalic, Roboto;font-weight:700;font-style:italic;}.c{fill:none;stroke:#707070;}.d{opacity:0.62;}</style><clipPath id="b"><rect width="1080" height="1920"/></clipPath></defs><g id="a" class="a"><text class="b" transform="translate(454.92 41.32)"><tspan x="15.015" y="63">SKOR</tspan></text><text class="b" transform="translate(58.92 112.36)"><tspan x="0" y="63">ENERJİ</tspan></text><text class="b" transform="translate(838.44 41.32)"><tspan x="48.07" y="63">SÜRE</tspan></text><path class="c" d="M4561.621,448.958" transform="translate(-3979.269 -6.439)"/><rect class="d" width="32.64" height="1006.08" transform="translate(984.36 499.24)"/><g transform="translate(42.696 61.6)"><path class="e" d="M1648.851,2100.96l-8.25,42.575h47.777l8.368-42.575Z" transform="translate(-1562.938 -2100.96)"/><g transform="translate(18.144)"><path class="e" d="M1648.851,2100.96l-8.25,42.575h47.777l8.368-42.575Z" transform="translate(-1640.601 -2100.96)"/><path class="e" d="M1648.851,2100.96l-8.25,42.575h47.777l8.368-42.575Z" transform="translate(-1640.601 -2100.96)"/></g><path class="e" d="M1654.593,2100.96l-4.991,25.758h11.626l5.063-25.758Z" transform="translate(-1649.601 -2093.744)"/><path class="e" d="M1654.593,2100.96l-4.991,25.758h11.626l5.063-25.758Z" transform="translate(-1394.241 -2091.824)"/><path class="e" d="M1648.851,2100.96l-8.25,42.575h47.777l8.368-42.575Z" transform="translate(-1502.937 -2100.96)"/><path class="e" d="M1648.851,2100.96l-8.25,42.575h47.777l8.368-42.575Z" transform="translate(-1442.937 -2100.96)"/></g><g transform="translate(1033.463 522.562) rotate(180)"><rect class="e" width="16.363" height="14.658" transform="translate(0 14.658)"/><rect width="16.363" height="14.658" transform="translate(0 0)"/><rect width="16.363" height="14.658" transform="translate(0 29.316)"/><rect width="16.363" height="14.658" transform="translate(16.363 14.658)"/><rect class="e" width="16.363" height="14.658" transform="translate(16.363 0)"/><rect class="e" width="16.363" height="14.658" transform="translate(16.363 29.316)"/><rect class="e" width="16.363" height="14.658" transform="translate(32.726 14.658)"/><rect width="16.363" height="14.658" transform="translate(32.726 0)"/><rect width="16.363" height="14.658" transform="translate(32.726 29.316)"/><rect width="16.363" height="14.658" transform="translate(49.089 14.658)"/><rect class="e" width="16.363" height="14.658" transform="translate(49.089 0)"/><rect class="e" width="16.363" height="14.658" transform="translate(49.089 29.316)"/></g></g></svg>